#
#
# OBJ File Generated by Meshlab
#
#
# Object kuka_wrist_lo.obj
#
# Vertices: 102
# Faces: 200
#
#
vn 0.110535 -0.982220 -0.151744
v 0.006283 -0.078785 -0.014364
vn -0.282333 -0.957202 0.063657
v -0.023253 -0.075626 0.003283
vn 0.416421 -0.907015 -0.062589
v 0.026452 -0.074062 -0.002699
vn -0.252974 -0.901167 -0.351996
v -0.008605 -0.075679 -0.020579
vn -0.034511 -0.931623 0.361783
v 0.000080 -0.074090 0.026297
vn 0.280332 -0.916157 0.286480
v 0.019657 -0.072086 0.023531
vn -0.542027 -0.810280 -0.222831
v -0.036133 -0.065873 -0.017054
vn 0.572866 -0.655661 0.491867
v 0.034390 -0.059370 0.032861
vn 0.599869 -0.773290 0.205377
v 0.041448 -0.062243 0.013629
vn 0.672421 -0.731339 -0.113988
v 0.043005 -0.062899 -0.005996
vn 0.177703 -0.786864 -0.590988
v 0.013629 -0.062243 -0.041448
vn -0.093903 -0.768507 -0.632913
v -0.005996 -0.062899 -0.043005
vn -0.470488 -0.712603 -0.520421
v -0.034390 -0.059370 -0.032861
vn -0.664874 -0.743111 0.075688
v -0.043005 -0.062899 0.005996
vn -0.459535 -0.780733 0.423419
v -0.027514 -0.066484 0.028529
vn 0.004144 -0.616461 0.787375
v -0.000067 -0.053382 0.052664
vn 0.245181 -0.715874 0.653766
v 0.014937 -0.058840 0.045149
vn 0.480007 -0.747263 -0.459556
v 0.030516 -0.061692 -0.033634
vn -0.249475 -0.713039 0.655239
v -0.015178 -0.058278 0.045740
vn 0.183090 -0.134788 0.973812
v 0.021980 -0.039943 0.056907
vn 0.775643 -0.561970 0.287345
v 0.054689 -0.045888 0.017842
vn 0.858860 -0.511115 0.033464
v 0.057527 -0.045887 0.000068
vn 0.789650 -0.556729 -0.257887
v 0.054732 -0.045887 -0.017710
vn 0.708933 -0.500316 -0.497089
v 0.046580 -0.045886 -0.033758
vn 0.269159 -0.569573 -0.776621
v 0.017842 -0.045888 -0.054689
vn 0.033464 -0.511115 -0.858860
v 0.000068 -0.045887 -0.057527
vn -0.254008 -0.550596 -0.795188
v -0.017710 -0.045887 -0.054732
vn -0.496434 -0.486478 -0.718952
v -0.033758 -0.045886 -0.046580
vn -0.766901 -0.584701 -0.264552
v -0.054689 -0.045888 -0.017842
vn -0.858860 -0.511115 -0.033464
v -0.057527 -0.045887 -0.000068
vn -0.783031 -0.563849 0.262558
v -0.054732 -0.045887 0.017710
vn -0.701107 -0.533449 0.473161
v -0.046580 -0.045886 0.033758
vn -0.151106 -0.245475 0.957554
v -0.021038 -0.040533 0.056905
vn 0.509037 -0.521971 0.684418
v 0.035896 -0.042576 0.047724
vn 0.528621 -0.439321 -0.726331
v 0.036948 -0.036161 -0.050775
vn -0.729826 -0.430387 -0.531151
v -0.050775 -0.036161 -0.036948
vn -0.531402 -0.471779 0.703589
v -0.036142 -0.041461 0.048411
vn 0.711719 -0.366031 0.599564
v 0.052901 -0.030398 0.038605
vn 0.915676 -0.275790 0.292365
v 0.063497 -0.025662 0.020663
vn 0.965193 -0.261188 0.013568
v 0.066776 -0.025655 0.000028
vn 0.922138 -0.261193 -0.285375
v 0.063515 -0.025663 -0.020606
vn 0.795114 -0.243955 -0.555229
v 0.054040 -0.025656 -0.039227
vn 0.291240 -0.288781 -0.912022
v 0.020663 -0.025662 -0.063497
vn 0.013568 -0.261188 -0.965193
v 0.000028 -0.025655 -0.066776
vn -0.285375 -0.261193 -0.922138
v -0.020606 -0.025663 -0.063515
vn -0.555229 -0.243955 -0.795114
v -0.039227 -0.025656 -0.054040
vn -0.912022 -0.288781 -0.291240
v -0.063497 -0.025662 -0.020663
vn -0.965193 -0.261188 -0.013568
v -0.066776 -0.025655 -0.000028
vn -0.922138 -0.261193 0.285375
v -0.063515 -0.025663 0.020606
vn -0.780844 -0.260082 0.568015
v -0.054040 -0.025656 0.039227
vn 0.713982 -0.168999 0.679463
v 0.056578 -0.009022 0.041114
vn 0.949845 0.020275 0.312063
v 0.067385 0.002434 0.021886
vn 0.999637 0.026920 -0.000949
v 0.070850 0.002437 -0.000009
vn 0.950417 0.026907 -0.309813
v 0.067380 0.002436 -0.021901
vn 0.814157 0.046764 -0.578758
v 0.057313 0.002443 -0.041651
vn 0.580814 -0.155137 -0.799117
v 0.040787 -0.014625 -0.056111
vn 0.316436 0.016689 -0.948467
v 0.021886 0.002434 -0.067385
vn -0.000949 0.026920 -0.999637
v -0.000009 0.002437 -0.070850
vn -0.309813 0.026907 -0.950417
v -0.021901 0.002436 -0.067380
vn -0.578758 0.046764 -0.814157
v -0.041651 0.002443 -0.057313
vn -0.799117 -0.155137 -0.580814
v -0.056111 -0.014625 -0.040787
vn -0.948467 0.016689 -0.316436
v -0.067385 0.002434 -0.021886
vn -0.999637 0.026920 0.000949
v -0.070850 0.002437 0.000009
vn -0.949006 0.033454 0.313479
v -0.067380 0.002436 0.021901
vn -0.812714 -0.063618 0.579180
v -0.057056 -0.003260 0.041448
vn -0.184387 -0.030018 0.982395
v -0.041625 -0.007928 0.056902
vn 0.137324 -0.021734 0.990288
v 0.041269 0.007228 0.056900
vn 0.779330 0.141089 0.610524
v 0.056804 0.008153 0.041259
vn 0.611548 0.115601 -0.782716
v 0.041261 0.008152 -0.056804
vn -0.782716 0.115601 -0.611548
v -0.056804 0.008152 -0.041261
vn -0.773548 0.157679 0.613809
v -0.056038 0.013917 0.040771
vn 0.259378 0.142161 0.955256
v 0.035060 0.027924 0.056895
vn 0.771908 0.321013 0.548734
v 0.052798 0.030234 0.038316
vn 0.927796 0.268138 0.259415
v 0.062053 0.030238 0.020124
vn 0.952584 0.304174 -0.007897
v 0.065235 0.030239 -0.000036
vn 0.894155 0.315182 -0.318037
v 0.062031 0.030238 -0.020193
vn 0.755065 0.300950 -0.582499
v 0.052756 0.030235 -0.038373
vn 0.552477 0.334651 -0.763399
v 0.038316 0.030234 -0.052798
vn 0.274309 0.305281 -0.911898
v 0.020124 0.030238 -0.062053
vn -0.039998 0.268145 -0.962548
v -0.000036 0.030239 -0.065235
vn -0.301368 0.324651 -0.896537
v -0.020193 0.030238 -0.062031
vn -0.587068 0.276118 -0.760993
v -0.038373 0.030235 -0.052756
vn -0.773931 0.321298 -0.545709
v -0.052798 0.030234 -0.038316
vn -0.911874 0.305361 -0.274301
v -0.062053 0.030238 -0.020124
vn -0.962512 0.268277 0.039974
v -0.065235 0.030239 0.000036
vn -0.905557 0.319419 0.279173
v -0.062031 0.030238 0.020193
vn -0.755279 0.365614 0.543949
v -0.052756 0.030235 0.038373
vn -0.204542 0.103079 0.973415
v -0.034467 0.029140 0.056896
vn 0.185261 0.507738 0.841356
v 0.013978 0.045478 0.056592
vn 0.373787 0.817685 0.437807
v 0.033828 0.045500 0.046560
vn 0.188902 0.978693 0.080472
v 0.052645 0.045500 0.024705
vn 0.179032 0.983755 -0.013186
v 0.057551 0.045500 0.000000
vn 0.174976 0.978973 -0.104860
v 0.050647 0.045500 -0.025806
vn 0.075189 0.990796 -0.112557
v 0.033828 0.045500 -0.046560
vn 0.010978 0.966126 -0.257838
v 0.007224 0.045500 -0.057703
vn -0.174126 0.932629 -0.316045
v -0.028073 0.045501 -0.050928
vn -0.450093 0.846909 -0.283129
v -0.046560 0.045500 -0.033828
vn -0.782185 0.619173 -0.069364
v -0.057685 0.045533 -0.007222
vn -0.104957 0.993814 0.036296
v -0.054734 0.045500 0.017784
vn -0.059993 0.996905 0.050802
v -0.046560 0.045500 0.033828
vn -0.119326 0.977511 0.173878
v -0.033828 0.045500 0.046560
vn -0.049038 0.803452 0.593346
v -0.012996 0.045498 0.056871
# 102 vertices, 102 vertices normals

f 4//4 1//1 2//2
f 2//2 1//1 5//5
f 6//6 5//5 1//1
f 3//3 6//6 1//1
f 18//18 3//3 1//1
f 7//7 4//4 2//2
f 15//15 2//2 5//5
f 17//17 5//5 6//6
f 8//8 17//17 6//6
f 9//9 6//6 3//3
f 10//10 9//9 3//3
f 18//18 10//10 3//3
f 11//11 18//18 1//1
f 12//12 11//11 1//1
f 12//12 1//1 4//4
f 13//13 12//12 4//4
f 13//13 4//4 7//7
f 14//14 7//7 2//2
f 15//15 14//14 2//2
f 19//19 15//15 5//5
f 16//16 19//19 5//5
f 16//16 5//5 17//17
f 8//8 6//6 9//9
f 34//34 17//17 8//8
f 21//21 8//8 9//9
f 21//21 9//9 10//10
f 22//22 21//21 10//10
f 23//23 22//22 10//10
f 23//23 10//10 18//18
f 24//24 23//23 18//18
f 25//25 18//18 11//11
f 25//25 11//11 12//12
f 26//26 25//25 12//12
f 27//27 26//26 12//12
f 27//27 12//12 13//13
f 28//28 27//27 13//13
f 29//29 13//13 7//7
f 29//29 7//7 14//14
f 30//30 29//29 14//14
f 31//31 30//30 14//14
f 31//31 14//14 15//15
f 32//32 31//31 15//15
f 37//37 32//32 15//15
f 37//37 15//15 19//19
f 20//20 16//16 17//17
f 33//33 19//19 16//16
f 20//20 17//17 34//34
f 38//38 34//34 8//8
f 38//38 8//8 21//21
f 35//35 24//24 18//18
f 35//35 18//18 25//25
f 36//36 28//28 13//13
f 36//36 13//13 29//29
f 33//33 37//37 19//19
f 39//39 38//38 21//21
f 39//39 21//21 22//22
f 40//40 39//39 22//22
f 40//40 22//22 23//23
f 41//41 40//40 23//23
f 41//41 23//23 24//24
f 42//42 41//41 24//24
f 42//42 24//24 35//35
f 43//43 35//35 25//25
f 43//43 25//25 26//26
f 44//44 43//43 26//26
f 44//44 26//26 27//27
f 45//45 44//44 27//27
f 45//45 27//27 28//28
f 46//46 45//45 28//28
f 46//46 28//28 36//36
f 47//47 36//36 29//29
f 47//47 29//29 30//30
f 48//48 47//47 30//30
f 48//48 30//30 31//31
f 49//49 48//48 31//31
f 49//49 31//31 32//32
f 50//50 49//49 32//32
f 50//50 32//32 37//37
f 38//38 20//20 34//34
f 56//56 42//42 35//35
f 56//56 35//35 43//43
f 61//61 46//46 36//36
f 61//61 36//36 47//47
f 66//66 50//50 37//37
f 66//66 37//37 33//33
f 51//51 20//20 38//38
f 51//51 38//38 39//39
f 52//52 51//51 39//39
f 52//52 39//39 40//40
f 53//53 52//52 40//40
f 53//53 40//40 41//41
f 54//54 53//53 41//41
f 54//54 41//41 42//42
f 55//55 54//54 42//42
f 55//55 42//42 56//56
f 57//57 56//56 43//43
f 57//57 43//43 44//44
f 58//58 57//57 44//44
f 58//58 44//44 45//45
f 59//59 58//58 45//45
f 59//59 45//45 46//46
f 60//60 59//59 46//46
f 60//60 46//46 61//61
f 62//62 61//61 47//47
f 62//62 47//47 48//48
f 63//63 62//62 48//48
f 63//63 48//48 49//49
f 64//64 63//63 49//49
f 64//64 49//49 50//50
f 65//65 64//64 50//50
f 65//65 50//50 66//66
f 67//67 20//20 51//51
f 68//68 67//67 51//51
f 68//68 51//51 52//52
f 69//69 55//55 56//56
f 69//69 56//56 57//57
f 70//70 60//60 61//61
f 70//70 61//61 62//62
f 71//71 64//64 65//65
f 71//71 65//65 66//66
f 88//88 71//71 66//66
f 72//72 67//67 68//68
f 73//73 72//72 68//68
f 73//73 68//68 52//52
f 74//74 73//73 52//52
f 74//74 52//52 53//53
f 75//75 74//74 53//53
f 75//75 53//53 54//54
f 76//76 75//75 54//54
f 76//76 54//54 55//55
f 77//77 76//76 55//55
f 77//77 55//55 69//69
f 78//78 77//77 69//69
f 78//78 69//69 57//57
f 79//79 78//78 57//57
f 79//79 57//57 58//58
f 80//80 79//79 58//58
f 80//80 58//58 59//59
f 81//81 80//80 59//59
f 81//81 59//59 60//60
f 82//82 81//81 60//60
f 82//82 60//60 70//70
f 83//83 82//82 70//70
f 83//83 70//70 62//62
f 84//84 83//83 62//62
f 84//84 62//62 63//63
f 85//85 84//84 63//63
f 85//85 63//63 64//64
f 86//86 85//85 64//64
f 86//86 64//64 71//71
f 87//87 86//86 71//71
f 88//88 87//87 71//71
f 90//90 89//89 72//72
f 90//90 72//72 73//73
f 91//91 90//90 73//73
f 91//91 73//73 74//74
f 91//91 74//74 75//75
f 92//92 91//91 75//75
f 92//92 75//75 76//76
f 93//93 92//92 76//76
f 93//93 76//76 77//77
f 93//93 77//77 78//78
f 94//94 93//93 78//78
f 94//94 78//78 79//79
f 95//95 94//94 79//79
f 95//95 79//79 80//80
f 95//95 80//80 81//81
f 96//96 95//95 81//81
f 96//96 81//81 82//82
f 96//96 82//82 83//83
f 97//97 96//96 83//83
f 97//97 83//83 84//84
f 98//98 97//97 84//84
f 98//98 84//84 85//85
f 98//98 85//85 86//86
f 99//99 98//98 86//86
f 99//99 86//86 87//87
f 100//100 99//99 87//87
f 100//100 87//87 88//88
f 101//101 100//100 88//88
f 102//102 101//101 88//88
f 16//16 20//20 33//33
f 20//20 67//67 66//66
f 20//20 66//66 33//33
f 67//67 72//72 88//88
f 67//67 88//88 66//66
f 72//72 89//89 102//102
f 72//72 102//102 88//88
f 97//97 98//98 99//99
f 96//96 97//97 99//99
f 95//95 96//96 99//99
f 94//94 95//95 99//99
f 94//94 99//99 100//100
f 93//93 94//94 100//100
f 92//92 93//93 100//100
f 91//91 92//92 100//100
f 91//91 100//100 101//101
f 91//91 101//101 102//102
f 90//90 91//91 102//102
f 89//89 90//90 102//102
# 200 faces, 0 coords texture

# End of File
