v 0.059500 0.000000 0.010000
v 0.056587 0.018386 0.010000
v 0.048136 0.034973 0.010000
v 0.034973 0.048136 0.010000
v 0.018386 0.056587 0.010000
v 0.000000 0.059500 0.010000
v -0.018386 0.056587 0.010000
v -0.034973 0.048136 0.010000
v -0.048136 0.034973 0.010000
v -0.056587 0.018386 0.010000
v -0.059500 0.000000 0.010000
v -0.056587 -0.018386 0.010000
v -0.048136 -0.034973 0.010000
v -0.034973 -0.048136 0.010000
v -0.018386 -0.056587 0.010000
v 0.000000 -0.059500 0.010000
v 0.018386 -0.056587 0.010000
v 0.034973 -0.048136 0.010000
v 0.048136 -0.034973 0.010000
v 0.056587 -0.018386 0.010000
v 0.059500 0.000000 -0.010000
v 0.056587 0.018386 -0.010000
v 0.048136 0.034973 -0.010000
v 0.034973 0.048136 -0.010000
v 0.018386 0.056587 -0.010000
v 0.000000 0.059500 -0.010000
v -0.018386 0.056587 -0.010000
v -0.034973 0.048136 -0.010000
v -0.048136 0.034973 -0.010000
v -0.056587 0.018386 -0.010000
v -0.059500 0.000000 -0.010000
v -0.056587 -0.018386 -0.010000
v -0.048136 -0.034973 -0.010000
v -0.034973 -0.048136 -0.010000
v -0.018386 -0.056587 -0.010000
v 0.000000 -0.059500 -0.010000
v 0.018386 -0.056587 -0.010000
v 0.034973 -0.048136 -0.010000
v 0.048136 -0.034973 -0.010000
v 0.056587 -0.018386 -0.010000
vn 1.000000 0.000000 0.000000
vn 0.951057 0.309017 0.000000
vn 0.809017 0.587785 0.000000
vn 0.587785 0.809017 0.000000
vn 0.309017 0.951057 0.000000
vn 0.000000 1.000000 0.000000
vn -0.309017 0.951057 0.000000
vn -0.587785 0.809017 0.000000
vn -0.809017 0.587785 0.000000
vn -0.951057 0.309017 0.000000
vn -1.000000 0.000000 0.000000
vn -0.951057 -0.309017 0.000000
vn -0.809017 -0.587785 0.000000
vn -0.587785 -0.809017 0.000000
vn -0.309017 -0.951057 0.000000
vn 0.000000 -1.000000 0.000000
vn 0.309017 -0.951057 0.000000
vn 0.587785 -0.809017 0.000000
vn 0.809017 -0.587785 0.000000
vn 0.951057 -0.309017 0.000000
vn 1.000000 0.000000 0.000000
vn 0.951057 0.309017 0.000000
vn 0.809017 0.587785 0.000000
vn 0.587785 0.809017 0.000000
vn 0.309017 0.951057 0.000000
vn 0.000000 1.000000 0.000000
vn -0.309017 0.951057 0.000000
vn -0.587785 0.809017 0.000000
vn -0.809017 0.587785 0.000000
vn -0.951057 0.309017 0.000000
vn -1.000000 0.000000 0.000000
vn -0.951057 -0.309017 0.000000
vn -0.809017 -0.587785 0.000000
vn -0.587785 -0.809017 0.000000
vn -0.309017 -0.951057 0.000000
vn 0.000000 -1.000000 0.000000
vn 0.309017 -0.951057 0.000000
vn 0.587785 -0.809017 0.000000
vn 0.809017 -0.587785 0.000000
vn 0.951057 -0.309017 0.000000
f 2//2 1//1 21//21
f 2//2 21//21 22//22
f 3//3 2//2 22//22
f 3//3 22//22 23//23
f 4//4 3//3 23//23
f 4//4 23//23 24//24
f 5//5 4//4 24//24
f 5//5 24//24 25//25
f 6//6 5//5 25//25
f 6//6 25//25 26//26
f 7//7 6//6 26//26
f 7//7 26//26 27//27
f 8//8 7//7 27//27
f 8//8 27//27 28//28
f 9//9 8//8 28//28
f 9//9 28//28 29//29
f 10//10 9//9 29//29
f 10//10 29//29 30//30
f 11//11 10//10 30//30
f 11//11 30//30 31//31
f 12//12 11//11 31//31
f 12//12 31//31 32//32
f 13//13 12//12 32//32
f 13//13 32//32 33//33
f 14//14 13//13 33//33
f 14//14 33//33 34//34
f 15//15 14//14 34//34
f 15//15 34//34 35//35
f 16//16 15//15 35//35
f 16//16 35//35 36//36
f 17//17 16//16 36//36
f 17//17 36//36 37//37
f 18//18 17//17 37//37
f 18//18 37//37 38//38
f 19//19 18//18 38//38
f 19//19 38//38 39//39
f 20//20 19//19 39//39
f 20//20 39//39 40//40
f 1//1 20//20 40//40
f 1//1 40//40 21//21
